<?xml version="1.0" standalone="no"?>
<!DOCTYPE svg PUBLIC "-//W3C//DTD SVG 20010904//EN"
 "http://www.w3.org/TR/2001/REC-SVG-20010904/DTD/svg10.dtd">
<svg version="1.0" xmlns="http://www.w3.org/2000/svg"
 width="300.000000pt" height="115.000000pt" viewBox="0 0 300.000000 115.000000"
 preserveAspectRatio="xMidYMid meet">
<metadata>
Created by potrace 1.10, written by Peter Selinger 2001-2011
</metadata>
<g transform="translate(0.000000,115.000000) scale(0.100000,-0.100000)"
fill="#ffffff" stroke="none">
<path d="M132 958 c-9 -9 -12 -115 -12 -415 0 -388 1 -403 19 -413 30 -16 414
-14 409 3 -4 9 -55 13 -201 15 l-197 2 0 395 0 395 280 0 280 0 0 -235 c0
-202 2 -235 15 -235 13 0 15 33 15 238 0 172 -3 241 -12 250 -17 17 -579 17
-596 0z"/>
<path d="M1020 695 l0 -195 40 0 40 0 0 55 0 55 46 0 c37 0 51 5 75 29 27 27
29 35 29 100 0 38 -4 81 -10 96 -14 36 -65 55 -150 55 l-70 0 0 -195z m175
140 c22 -21 25 -33 25 -90 0 -86 -17 -105 -94 -105 l-55 0 -4 -52 c-2 -29 -4
20 -5 110 l-2 162 55 0 c46 0 60 -4 80 -25z"/>
<path d="M1070 751 l0 -101 48 0 c73 0 87 15 87 94 0 80 -13 97 -84 104 l-51
5 0 -102z m100 33 c6 -14 10 -34 10 -45 0 -25 -35 -59 -60 -59 -18 0 -20 7
-20 65 l0 65 30 0 c24 0 33 -6 40 -26z"/>
<path d="M1360 862 c-19 -20 -31 -44 -35 -77 -10 -61 -1 -206 14 -233 32 -60
166 -71 219 -19 26 26 27 32 30 148 5 178 -15 209 -138 209 -54 0 -65 -3 -90
-28z m170 -22 c27 -27 32 -56 28 -164 -3 -106 -16 -131 -74 -142 -43 -8 -79 1
-104 26 -18 18 -20 34 -20 135 0 110 1 117 25 140 32 33 114 36 145 5z"/>
<path d="M1394 825 c-25 -25 -26 -29 -22 -136 4 -128 11 -139 88 -139 73 0 80
14 80 153 0 108 -1 117 -22 131 -35 25 -94 20 -124 -9z m108 -28 c13 -20 9
-192 -4 -205 -20 -20 -76 -15 -88 7 -5 11 -10 56 -10 100 0 69 3 84 21 102 22
22 66 20 81 -4z"/>
<path d="M1718 861 c-32 -29 -33 -30 -36 -138 -4 -135 8 -181 58 -205 43 -22
111 -23 151 -2 34 17 59 66 59 114 0 28 -2 30 -40 30 -37 0 -40 -2 -40 -28 0
-37 -17 -52 -57 -52 -44 0 -53 21 -53 124 0 79 2 87 24 101 34 23 75 10 82
-24 5 -23 10 -26 46 -26 l40 0 -5 40 c-4 28 -15 48 -37 68 -26 23 -39 27 -95
27 -57 0 -68 -3 -97 -29z m166 -22 c14 -11 26 -28 26 -37 0 -12 -7 -9 -24 13
-20 25 -31 30 -69 30 -77 0 -87 -18 -87 -148 0 -133 8 -147 82 -147 53 0 88
24 88 60 0 11 5 20 10 20 16 0 1 -52 -21 -75 -29 -30 -120 -28 -151 3 -21 21
-23 31 -23 138 0 114 0 116 28 140 37 31 103 33 141 3z"/>
<path d="M2050 885 c0 -3 -1 -89 -1 -192 l0 -188 35 -3 36 -3 0 73 c1 48 6 80
15 92 8 11 16 18 18 15 1 -2 16 -43 32 -91 l30 -88 43 0 c51 0 52 -10 -14 149
l-43 104 45 62 c24 35 44 65 44 69 0 3 -17 6 -38 6 -36 0 -41 -4 -85 -67 l-47
-67 0 67 0 67 -35 0 c-19 0 -35 -2 -35 -5z m105 -124 c56 76 101 126 80 89 -4
-8 -22 -32 -38 -53 l-29 -38 35 -92 c19 -51 38 -100 42 -109 4 -10 3 -18 -1
-18 -5 0 -22 35 -38 78 -16 42 -33 88 -38 101 -8 23 -9 22 -43 -22 -28 -36
-35 -55 -38 -103 -2 -33 -3 15 -3 106 0 127 1 144 5 72 l6 -92 60 81z"/>
<path d="M2380 695 l0 -195 105 0 105 0 0 40 0 40 -65 0 -65 0 0 43 0 42 50
-3 50 -4 0 42 0 42 -50 -4 -50 -3 0 44 0 44 65 -5 65 -6 0 39 0 39 -105 0
-105 0 0 -195z m118 158 l-68 -4 0 -69 0 -70 50 0 c28 0 50 -4 50 -10 0 -5
-22 -10 -50 -10 l-50 0 0 -70 0 -70 67 0 c47 0 64 -3 56 -11 -5 -5 -38 -9 -74
-7 l-64 3 -3 163 -2 162 77 -2 78 -2 -67 -3z"/>
<path d="M2660 851 l0 -39 45 6 46 5 -2 -159 -1 -159 36 -3 36 -3 0 162 0 162
45 -6 45 -7 0 40 0 40 -125 0 -125 0 0 -39z m173 2 l-43 -4 -2 -157 -2 -157
-6 155 -5 155 -45 6 c-30 4 -13 6 50 6 52 0 76 -2 53 -4z"/>
<path d="M192 871 c-9 -5 -12 -26 -10 -67 l3 -59 245 0 245 0 3 53 c2 31 -2
60 -9 68 -9 11 -54 14 -238 14 -124 0 -232 -4 -239 -9z m456 -62 l-3 -41 -215
1 c-118 0 -218 1 -222 1 -10 0 -11 64 -1 73 3 4 105 7 225 7 l219 0 -3 -41z"/>
<path d="M192 698 c-16 -16 -16 -110 0 -126 15 -15 82 -16 109 -2 28 15 28
115 0 130 -27 14 -94 13 -109 -2z m98 -64 l0 -45 -42 3 c-39 3 -43 6 -46 31
-6 46 4 57 48 57 l40 0 0 -46z"/>
<path d="M368 699 c-14 -8 -18 -23 -18 -64 0 -62 13 -75 77 -75 51 0 63 14 63
75 0 28 -5 56 -12 63 -15 15 -86 15 -110 1z m97 -64 c0 -40 0 -40 -42 -43
l-43 -3 0 46 0 46 43 -3 c42 -3 42 -3 42 -43z"/>
<path d="M537 692 c-21 -23 -22 -81 -1 -110 19 -27 93 -31 118 -6 21 21 21 97
0 118 -22 23 -96 21 -117 -2z m101 -60 l3 -43 -43 3 c-39 3 -43 6 -46 31 -6
47 4 59 45 55 37 -3 38 -4 41 -46z"/>
<path d="M184 516 c-3 -7 -4 -38 -2 -67 l3 -54 53 -3 c31 -2 60 2 68 9 17 14
19 100 2 117 -17 17 -117 16 -124 -2z m106 -57 l0 -40 -42 3 c-36 3 -44 7 -46
26 -6 41 5 52 48 52 l40 0 0 -41z"/>
<path d="M362 518 c-17 -17 -16 -103 2 -117 8 -7 37 -11 68 -9 l53 3 0 65 0
65 -55 3 c-34 2 -60 -2 -68 -10z m106 -60 l3 -38 -45 0 -46 0 0 41 0 40 43 -3
c41 -3 42 -4 45 -40z"/>
<path d="M530 511 c-12 -24 -13 -81 -1 -100 16 -25 29 -2 23 44 l-5 45 47 0
c39 0 46 -3 46 -20 0 -13 5 -18 15 -14 18 7 20 35 3 52 -7 7 -36 12 -65 12
-41 0 -54 -4 -63 -19z"/>
<path d="M665 440 c-43 -9 -69 -25 -99 -60 -54 -65 -54 -155 0 -220 73 -86
203 -82 272 8 23 30 27 45 27 102 0 57 -4 72 -28 103 -43 56 -106 81 -172 67z
m112 -48 c58 -31 82 -138 44 -196 -69 -104 -230 -82 -261 36 -28 102 63 199
165 178 17 -4 40 -12 52 -18z"/>
<path d="M685 280 c-41 -41 -56 -63 -49 -70 12 -12 137 107 128 121 -9 16 -19
10 -79 -51z"/>
<path d="M645 320 c-8 -13 4 -32 16 -25 12 8 12 35 0 35 -6 0 -13 -4 -16 -10z"/>
<path d="M725 240 c-10 -17 12 -37 25 -24 8 8 6 15 -4 23 -10 9 -16 9 -21 1z"/>
<path d="M192 348 c-16 -16 -16 -110 0 -126 15 -15 82 -16 109 -2 28 15 28
115 0 130 -27 14 -94 13 -109 -2z m98 -64 l0 -45 -42 3 c-39 3 -43 6 -46 31
-6 46 4 57 48 57 l40 0 0 -46z"/>
<path d="M368 349 c-14 -8 -18 -23 -18 -64 0 -62 13 -75 77 -75 51 0 63 14 63
75 0 28 -5 56 -12 63 -15 15 -86 15 -110 1z m97 -64 c0 -40 0 -40 -42 -43
l-43 -3 0 46 0 46 43 -3 c42 -3 42 -3 42 -43z"/>
<path d="M1020 348 c0 -1 6 -23 14 -47 14 -49 36 -66 37 -29 l0 23 9 -22 c14
-35 26 -28 39 21 13 54 13 56 2 56 -5 0 -13 -15 -17 -32 l-8 -33 -5 29 c-3 16
-12 31 -20 34 -9 3 -11 -1 -6 -17 3 -11 3 -26 -2 -33 -5 -9 -9 -3 -13 16 -3
16 -11 31 -17 34 -7 2 -13 2 -13 0z"/>
<path d="M1170 300 c0 -49 1 -50 31 -50 17 0 28 4 24 10 -3 6 -13 10 -21 10
-8 0 -14 5 -14 10 0 6 7 10 15 10 8 0 15 5 15 10 0 6 -7 10 -15 10 -8 0 -15 5
-15 10 0 6 9 10 21 10 11 0 17 5 14 10 -3 6 -17 10 -31 10 -22 0 -24 -4 -24
-50z"/>
<path d="M1330 300 c0 -36 4 -50 14 -50 10 0 12 7 8 22 -3 14 -2 19 6 14 7 -4
12 -14 12 -22 0 -8 7 -14 15 -14 12 0 13 4 3 25 -8 19 -8 31 0 50 14 30 -3 35
-24 8 -13 -17 -13 -17 -14 0 0 9 -4 17 -10 17 -5 0 -10 -22 -10 -50z"/>
<path d="M1430 300 c0 -49 1 -50 30 -50 35 0 40 15 8 25 -20 6 -20 8 -5 12 21
6 23 23 2 23 -8 0 -15 5 -15 10 0 6 9 10 20 10 11 0 20 5 20 10 0 6 -13 10
-30 10 -29 0 -30 -1 -30 -50z"/>
<path d="M1530 300 c0 -47 2 -50 25 -50 14 0 25 5 25 10 0 6 -7 10 -15 10 -18
0 -20 16 -2 24 10 5 10 7 0 12 -18 8 -16 24 2 24 8 0 15 5 15 10 0 6 -11 10
-25 10 -23 0 -25 -3 -25 -50z"/>
<path d="M1620 300 c0 -27 5 -50 10 -50 6 0 10 7 10 15 0 8 9 15 20 15 14 0
20 7 20 23 0 28 -17 47 -42 47 -15 0 -18 -9 -18 -50z"/>
<path d="M1780 301 c0 -39 4 -51 16 -51 12 0 14 10 12 47 -4 66 -28 70 -28 4z"/>
<path d="M1840 341 c0 -6 5 -11 10 -11 6 0 10 -18 10 -40 0 -29 4 -40 15 -40
12 0 14 8 9 42 -6 37 -5 41 10 35 12 -5 16 -3 14 5 -5 16 -68 23 -68 9z"/>
<path d="M2011 336 c-9 -11 -8 -18 4 -30 9 -9 21 -16 26 -16 5 0 9 -5 9 -11 0
-6 -9 -8 -21 -4 -15 5 -20 3 -17 -6 3 -8 14 -15 26 -17 32 -5 41 27 14 49 -28
22 -28 29 1 21 20 -5 21 -4 8 11 -16 21 -35 22 -50 3z"/>
<path d="M2110 300 c0 -27 5 -50 10 -50 6 0 10 23 10 50 0 28 -4 50 -10 50 -5
0 -10 -22 -10 -50z"/>
<path d="M2170 301 c0 -52 15 -70 23 -28 l4 22 2 -22 c0 -13 5 -23 10 -23 5 0
12 10 14 23 l4 22 2 -22 c0 -13 7 -23 14 -23 8 0 11 15 9 50 -4 52 -24 66 -30
22 -4 -28 -20 -28 -24 0 -2 12 -9 23 -15 26 -9 2 -13 -11 -13 -47z"/>
<path d="M2290 301 c0 -39 4 -51 15 -51 8 0 15 7 15 15 0 8 7 15 16 15 11 0
14 8 12 33 -2 27 -8 33 -30 35 -27 3 -28 2 -28 -47z m40 14 c0 -8 -4 -15 -10
-15 -5 0 -10 7 -10 15 0 8 5 15 10 15 6 0 10 -7 10 -15z"/>
<path d="M2390 300 c0 -47 2 -50 25 -50 14 0 25 5 25 10 0 6 -7 10 -15 10 -11
0 -15 11 -15 40 0 22 -4 40 -10 40 -5 0 -10 -22 -10 -50z"/>
<path d="M2479 346 c-2 -3 -3 -25 -1 -50 4 -41 7 -46 28 -46 13 0 24 5 24 10
0 6 -7 10 -15 10 -18 0 -20 16 -2 24 10 5 10 7 0 12 -18 8 -16 27 2 20 9 -3
15 0 15 9 0 14 -40 22 -51 11z"/>
</g>
</svg>
